<?xml version="1.0" encoding="UTF-8" standalone="no"?>
<!-- Created with Inkscape (http://www.inkscape.org/) -->

<svg
   xmlns:dc="http://purl.org/dc/elements/1.1/"
   xmlns:cc="http://creativecommons.org/ns#"
   xmlns:rdf="http://www.w3.org/1999/02/22-rdf-syntax-ns#"
   xmlns:svg="http://www.w3.org/2000/svg"
   xmlns="http://www.w3.org/2000/svg"
   xmlns:sodipodi="http://sodipodi.sourceforge.net/DTD/sodipodi-0.dtd"
   xmlns:inkscape="http://www.inkscape.org/namespaces/inkscape"
   width="343pt"
   height="340pt"
   id="svg3833"
   version="1.1"
   inkscape:version="0.48.4 r9939"
   sodipodi:docname="ieee-logo - Copy.svg">
  <defs
     id="defs3835" />
  <sodipodi:namedview
     pagecolor="#ffffff"
     bordercolor="#666666"
     borderopacity="1.0"
     inkscape:pageopacity="0.0"
     inkscape:pageshadow="2"
     inkscape:zoom="0.8"
     inkscape:cx="453.62367"
     inkscape:cy="210"
     inkscape:document-units="pt"
     inkscape:current-layer="layer1"
     id="namedview3837"
     showgrid="false"
     inkscape:window-width="1026"
     inkscape:window-height="573"
     inkscape:window-x="210"
     inkscape:window-y="69"
     inkscape:window-maximized="0" />
  <metadata
     id="metadata3839">
    <rdf:RDF>
      <cc:Work
         rdf:about="">
        <dc:format>image/svg+xml</dc:format>
        <dc:type
           rdf:resource="http://purl.org/dc/dcmitype/StillImage" />
        <dc:title />
      </cc:Work>
    </rdf:RDF>
  </metadata>
  <g
     inkscape:label="Layer 1"
     inkscape:groupmode="layer"
     id="layer1">
    <g
       id="g3036"
       transform="matrix(0.32849804,0,0,-0.32849804,-29.615748,480.23536)"
       style="fill:#a4a4a4;fill-opacity:1">
      <path
         inkscape:connector-curvature="0"
         d="m 818.77,1354.24 c 38.593,-48.96 79.199,-100.22 120.964,-146.59 l 103.106,-107.71 c 93.31,-92.74 192.38,-174.53 298.66,-246.823 l 3.45,-0.566 c 13.53,-8.645 22.76,-24.199 24.19,-40.039 -0.57,-34.27 -40.03,-41.184 -60.76,-59.61 -206.5,-149.765 -391.4,-335.234 -537.13,-541.73 l -11.797,-11.805 c -11.816,-7.207 -27.082,-4.328 -39.465,0 -15.84,5.176 -17.566,22.461 -27.644,33.113 -32.254,50.11 -73.442,97.063 -108.574,143.711 -20.739,21.028 -38.02,43.204 -59.332,65.664 -119.809,131.329 -254.59,246.536 -395.426,343.586 -10.078,10.079 -18.43,23.329 -13.821,39.454 4.321,17.859 25.051,28.515 38.879,39.46 175.969,120.668 337.246,278.205 473.473,446.975 l 84.961,110.6 c 11.226,8.63 26.207,15.84 40.035,9.78 6.328,-1.73 13.535,-7.48 19.297,-10.94 z"
         style="fill:#ffffff;fill-opacity:1;fill-rule:nonzero;stroke:none"
         id="path3046"
         sodipodi:nodetypes="ccccccccccccccccccccc" />
    </g>
  </g>
</svg>
